<svg width="18" height="18" viewBox="0 0 18 18" fill="none" xmlns="http://www.w3.org/2000/svg">
<path d="M7.15909 7.95349C7.72396 7.95349 8.18182 8.42199 8.18182 9V12.7674C8.18182 13.3455 7.72396 13.814 7.15909 13.814C6.59426 13.814 6.13636 13.3455 6.13636 12.7674V9C6.13636 8.42199 6.59426 7.95349 7.15909 7.95349Z" fill="#4357AC"/>
<path d="M10.8409 7.95349C11.4058 7.95349 11.8636 8.42199 11.8636 9V12.7674C11.8636 13.3455 11.4058 13.814 10.8409 13.814C10.276 13.814 9.81818 13.3455 9.81818 12.7674V9C9.81818 8.42199 10.276 7.95349 10.8409 7.95349Z" fill="#4357AC"/>
<path fill-rule="evenodd" clip-rule="evenodd" d="M6.13636 0C5.23262 0 4.5 0.749662 4.5 1.67442V3.76744H1.02273C0.457887 3.76744 0 4.23598 0 4.81395C0 5.39193 0.457887 5.86047 1.02273 5.86047H2.16578L2.77303 16.4239C2.82391 17.309 3.54016 18 4.40657 18H13.5934C14.4598 18 15.1761 17.309 15.2269 16.4239L15.8342 5.86047H16.9773C17.5421 5.86047 18 5.39193 18 4.81395C18 4.23598 17.5421 3.76744 16.9773 3.76744H13.5V1.67442C13.5 0.749662 12.7674 0 11.8636 0H6.13636ZM4.21477 5.86047L4.7923 15.907H13.2077L13.7852 5.86047H4.21477ZM6.54545 3.76744V2.09302H11.4545V3.76744H6.54545Z" fill="#4357AC"/>
</svg>
