<svg width="current" height="current" viewBox="0 0 20 20" fill="" xmlns="http://www.w3.org/2000/svg">
<path d="M10 18C10 17.3096 9.44036 16.75 8.75 16.75H3.25V3.25H8.75C9.44036 3.25 10 2.69036 10 2C10 1.30964 9.44036 0.75 8.75 0.75H3C1.75736 0.75 0.75 1.75736 0.75 3V17C0.75 18.2426 1.75736 19.25 3 19.25H8.75C9.44036 19.25 10 18.6904 10 18Z" fill="current"/>
<path d="M13.0001 13.2323L14.9823 11.2501H7.25005C6.5597 11.2501 6.00005 10.6904 6.00005 10.0001C6.00005 9.30973 6.55969 8.75009 7.25005 8.75009H14.9823L13 6.76782C12.5119 6.27967 12.5119 5.48821 13 5.00006C13.4882 4.5119 14.2796 4.5119 14.7678 5.00006L18.8839 9.1162C19.1184 9.35062 19.25 9.66857 19.25 10.0001C19.25 10.3316 19.1184 10.6495 18.8839 10.884L14.7678 15.0001C14.2797 15.4882 13.4882 15.4882 13.0001 15.0001C12.5119 14.5119 12.5119 13.7204 13.0001 13.2323Z" fill="current"/>
</svg>
