<svg width="16" height="16" viewBox="0 0 16 16" fill="none" xmlns="http://www.w3.org/2000/svg">
<path d="M5.07598 8.50415L13.3439 0.236257C13.6588 -0.0787525 14.1696 -0.0787525 14.4846 0.236257L15.7637 1.51539C16.0787 1.83039 16.0787 2.34112 15.7637 2.65612L7.49586 10.924C7.34461 11.0753 7.13941 11.1603 6.92549 11.1603H5.24304C5.0203 11.1603 4.83973 10.9797 4.83973 10.757V9.07451C4.83973 8.86059 4.92472 8.65539 5.07598 8.50415Z" fill="#4357AC"/>
<path d="M14.3175 9.54703C13.7606 9.54703 13.3093 9.99841 13.3093 10.5553V13.9834H2.01655V2.69072H5.4447C6.00156 2.69072 6.45297 2.2393 6.45297 1.68244C6.45297 1.12559 6.00156 0.674162 5.4447 0.674162H1.61324C0.722273 0.674162 0 1.39644 0 2.28741V14.3868C0 15.2778 0.722273 16 1.61324 16H13.7126C14.6036 16 15.3258 15.2778 15.3258 14.3868V10.5553C15.3258 9.99841 14.8744 9.54703 14.3175 9.54703Z" fill="#4357AC"/>
</svg>
