<svg width="20" height="22" viewBox="0 0 20 22" fill="none" xmlns="http://www.w3.org/2000/svg">
<path d="M14.1679 21.1538C14.1679 21.3783 14.0801 21.5935 13.9238 21.7522C13.7675 21.9109 13.5555 22 13.3344 22H6.66661C6.44556 22 6.23356 21.9109 6.07725 21.7522C5.92095 21.5935 5.83313 21.3783 5.83313 21.1538C5.83313 20.9294 5.92095 20.7142 6.07725 20.5555C6.23356 20.3968 6.44556 20.3077 6.66661 20.3077H13.3344C13.5555 20.3077 13.7675 20.3968 13.9238 20.5555C14.0801 20.7142 14.1679 20.9294 14.1679 21.1538ZM19.7741 16.0706C19.1948 15.0594 18.3353 12.1984 18.3353 8.46154C18.3353 6.2174 17.4572 4.06517 15.8941 2.47833C14.331 0.891481 12.211 0 10.0005 0C7.79 0 5.67002 0.891481 4.10695 2.47833C2.54387 4.06517 1.66575 6.2174 1.66575 8.46154C1.66575 12.1994 0.805182 15.0594 0.226957 16.0706C0.0792965 16.3276 0.00101611 16.6197 9.82562e-06 16.9173C-0.000996456 17.2148 0.0753071 17.5074 0.221225 17.7655C0.367144 18.0236 0.577517 18.2381 0.831129 18.3873C1.08474 18.5365 1.37263 18.6152 1.66575 18.6154H18.3353C18.6283 18.615 18.9161 18.5362 19.1695 18.3869C19.423 18.2376 19.6332 18.0231 19.779 17.7651C19.9248 17.507 20.001 17.2145 20 16.917C19.9989 16.6195 19.9207 16.3276 19.773 16.0706H19.7741Z" fill="#4357AC"/>
</svg>
