<svg width="59" height="38" viewBox="0 0 59 38" fill="none" xmlns="http://www.w3.org/2000/svg">
<path d="M30.8358 20.8843H20.4957H10.1557C5.09225 20.8843 0.986328 24.5679 0.986328 29.117C0.986328 33.6661 5.09225 37.3539 10.1557 37.3539H20.4957H30.8358C35.8992 37.3539 40.0051 33.6661 40.0051 29.117C40.0051 24.5679 35.9034 20.8843 30.8358 20.8843Z" fill="white"/>
<path d="M49.8309 0H39.4908H29.1508C24.0874 0 19.9814 3.6878 19.9814 8.23692C19.9814 12.786 24.0874 16.4738 29.1508 16.4738H39.4908H49.8309C54.8943 16.4738 59.0002 12.786 59.0002 8.23692C59.0002 3.6878 54.8943 0 49.8309 0Z" fill="white"/>
<path d="M48.2323 18.6773C48.2323 8.42926 40.125 0.112892 30.086 0.00836235V0C30.0525 0 30.0191 0.00418108 29.9898 0.00418108C29.9564 0.00418108 29.9229 0 29.8936 0V0.00836235C19.8546 0.117073 11.7473 8.43344 11.7473 18.6773C11.7473 28.9212 19.8546 37.2418 29.8936 37.3463V37.3505C29.9271 37.3505 29.9605 37.3463 29.9898 37.3463C30.0233 37.3463 30.0567 37.3505 30.086 37.3505V37.3463C40.1292 37.2418 48.2323 28.9254 48.2323 18.6773Z" fill="white"/>
<path d="M37.5679 15.118H33.554V11.1041C33.554 9.13893 31.9609 7.5459 29.9958 7.5459C28.0306 7.5459 26.4376 9.13893 26.4376 11.1041V15.118H22.4237C20.4585 15.118 18.8655 16.711 18.8655 18.6762C18.8655 20.6414 20.4585 22.2344 22.4237 22.2344H26.4376V26.2483C26.4376 28.2135 28.0306 29.8065 29.9958 29.8065C31.9609 29.8065 33.554 28.2135 33.554 26.2483V22.2344H37.5679C39.5331 22.2344 41.1261 20.6414 41.1261 18.6762C41.1261 16.711 39.5331 15.118 37.5679 15.118Z" fill="#4357AC"/>
</svg>
