<svg width="22" height="23" viewBox="0 0 22 23" fill="none" xmlns="http://www.w3.org/2000/svg">
<path d="M22 11.9651C22 11.2144 21.9269 10.4394 21.8049 9.71289H11.2446V13.9994H17.293C17.0491 15.3798 16.2443 16.5907 15.0493 17.3656L18.6588 20.1506C20.7806 18.189 22 15.3313 22 11.9651Z" fill="#4280EF"/>
<path d="M11.2445 22.815C14.2687 22.815 16.8051 21.822 18.6586 20.1268L15.0491 17.366C14.0492 18.0441 12.7566 18.4316 11.2445 18.4316C8.31783 18.4316 5.85457 16.47 4.95219 13.8545L1.24512 16.6879C3.14743 20.4416 7.00084 22.815 11.2445 22.815Z" fill="#34A353"/>
<path d="M4.95217 13.8299C4.48879 12.4495 4.48879 10.948 4.95217 9.56762L1.2451 6.70996C-0.340163 9.85823 -0.340163 13.5635 1.2451 16.6876L4.95217 13.8299Z" fill="#F6B704"/>
<path d="M11.2445 4.99101C12.8297 4.96679 14.3906 5.57223 15.5369 6.66202L18.7318 3.46531C16.7075 1.57635 14.0248 0.559213 11.2445 0.58343C7.00084 0.58343 3.14743 2.95674 1.24512 6.71045L4.95219 9.56811C5.85457 6.92841 8.31783 4.99101 11.2445 4.99101Z" fill="#E54335"/>
</svg>
