<svg width="226" height="63" viewBox="0 0 226 63" fill="none" xmlns="http://www.w3.org/2000/svg">
<path d="M44.8301 31.6074H29.3482H13.8662C6.28491 31.6074 0.137207 37.1228 0.137207 43.9341C0.137207 50.7454 6.28491 56.2671 13.8662 56.2671H29.3482H44.8301C52.4114 56.2671 58.5591 50.7454 58.5591 43.9341C58.5591 37.1228 52.4177 31.6074 44.8301 31.6074Z" fill="white"/>
<path d="M73.2711 0.338867H57.7891H42.3072C34.7259 0.338867 28.5782 5.86053 28.5782 12.6718C28.5782 19.4831 34.7259 25.0048 42.3072 25.0048H57.7891H73.2711C80.8524 25.0048 87.0001 19.4831 87.0001 12.6718C87.0001 5.86053 80.8524 0.338867 73.2711 0.338867Z" fill="white"/>
<path d="M70.877 28.304C70.877 12.9598 58.7381 0.507898 43.7069 0.351388V0.338867C43.6568 0.338867 43.6067 0.345127 43.5629 0.345127C43.5128 0.345127 43.4627 0.338867 43.4189 0.338867V0.351388C28.3877 0.514158 16.2488 12.9661 16.2488 28.304C16.2488 43.642 28.3877 56.1001 43.4189 56.2566V56.2629C43.469 56.2629 43.5191 56.2566 43.5629 56.2566C43.613 56.2566 43.6631 56.2629 43.7069 56.2629V56.2566C58.7443 56.1001 70.877 43.6482 70.877 28.304Z" fill="white"/>
<path d="M54.9096 22.9743H48.8997V16.9643C48.8997 14.0219 46.5144 11.6367 43.5721 11.6367C40.6297 11.6367 38.2445 14.0219 38.2445 16.9643V22.9743H32.2345C29.2921 22.9743 26.9069 25.3595 26.9069 28.3019C26.9069 31.2442 29.2921 33.6295 32.2345 33.6295H38.2445V39.6394C38.2445 42.5818 40.6297 44.967 43.5721 44.967C46.5144 44.967 48.8997 42.5818 48.8997 39.6394V33.6295H54.9096C57.852 33.6295 60.2372 31.2442 60.2372 28.3019C60.2372 25.3595 57.852 22.9743 54.9096 22.9743Z" fill="#4357AC"/>
<path d="M104.674 26C104.931 26 105.091 25.8398 105.091 25.5836V17.5441C105.091 14.3731 106.916 12.8677 108.87 12.8677C110.792 12.8677 111.817 14.1489 111.817 16.9035V25.5836C111.817 25.8398 111.977 26 112.233 26H115.565C115.821 26 115.981 25.8398 115.981 25.5836V17.5441C115.981 14.3731 117.807 12.8677 119.761 12.8677C121.682 12.8677 122.707 14.1489 122.707 16.9035V25.5836C122.707 25.8398 122.867 26 123.124 26H126.455C126.711 26 126.871 25.8398 126.871 25.5836V15.2059C126.871 11.3943 124.661 9.08816 121.042 9.08816C118.768 9.08816 116.59 10.1131 115.372 12.131C114.476 10.1772 112.65 9.08816 110.152 9.08816C108.102 9.08816 106.084 10.017 104.899 11.8107L104.803 9.82485C104.803 9.53658 104.61 9.40846 104.354 9.40846H101.343C101.087 9.40846 100.927 9.56861 100.927 9.82485V25.5836C100.927 25.8398 101.087 26 101.343 26H104.674ZM138.542 26.3203C141.617 26.3203 144.372 25.0071 145.845 22.0923C145.973 21.8361 145.877 21.6439 145.621 21.5478L142.77 20.5549C142.546 20.4908 142.354 20.5229 142.226 20.7471C141.457 21.9963 140.272 22.6368 138.574 22.6368C136.364 22.6368 134.955 21.2596 134.571 18.9854H145.941C146.198 18.9854 146.358 18.8573 146.39 18.569C146.55 12.8677 143.635 9.08816 138.542 9.08816C133.321 9.08816 130.151 12.6755 130.151 17.7042C130.151 22.7329 133.321 26.3203 138.542 26.3203ZM134.635 15.8785C135.147 13.8927 136.557 12.7716 138.51 12.7716C140.304 12.7716 141.553 13.9247 141.938 15.8785H134.635ZM156.263 26.3203C158.569 26.3203 160.491 25.3594 161.676 23.7259L161.772 25.5836C161.772 25.8719 161.964 26 162.22 26H165.231C165.487 26 165.647 25.8398 165.647 25.5836V2.39389C165.647 2.13765 165.487 1.9775 165.231 1.9775H161.9C161.644 1.9775 161.484 2.13765 161.484 2.39389V11.4264C160.266 9.95297 158.441 9.08816 156.263 9.08816C151.522 9.08816 148.511 12.6115 148.511 17.7042C148.511 22.797 151.522 26.3203 156.263 26.3203ZM157.288 22.5408C154.629 22.5408 152.803 20.5549 152.803 17.7042C152.803 14.8536 154.629 12.8677 157.288 12.8677C159.946 12.8677 161.772 14.8536 161.772 17.7042C161.772 20.5549 159.946 22.5408 157.288 22.5408ZM172.074 6.4617C173.451 6.4617 174.508 5.53283 174.508 4.15554C174.508 2.77825 173.451 1.84938 172.074 1.84938C170.696 1.84938 169.639 2.77825 169.639 4.15554C169.639 5.53283 170.696 6.4617 172.074 6.4617ZM173.739 26C173.995 26 174.155 25.8398 174.155 25.5836V9.82485C174.155 9.56861 173.995 9.40846 173.739 9.40846H170.408C170.152 9.40846 169.992 9.56861 169.992 9.82485V25.5836C169.992 25.8398 170.152 26 170.408 26H173.739ZM104.674 51C104.931 51 105.091 50.8398 105.091 50.5836V42.5441C105.091 39.3731 106.916 37.8677 108.87 37.8677C110.792 37.8677 111.817 39.1489 111.817 41.9035V50.5836C111.817 50.8398 111.977 51 112.233 51H115.565C115.821 51 115.981 50.8398 115.981 50.5836V42.5441C115.981 39.3731 117.807 37.8677 119.761 37.8677C121.682 37.8677 122.707 39.1489 122.707 41.9035V50.5836C122.707 50.8398 122.867 51 123.124 51H126.455C126.711 51 126.871 50.8398 126.871 50.5836V40.2059C126.871 36.3943 124.661 34.0882 121.042 34.0882C118.768 34.0882 116.59 35.1131 115.372 37.131C114.476 35.1772 112.65 34.0882 110.152 34.0882C108.102 34.0882 106.084 35.017 104.899 36.8107L104.803 34.8249C104.803 34.5366 104.61 34.4085 104.354 34.4085H101.343C101.087 34.4085 100.927 34.5686 100.927 34.8249V50.5836C100.927 50.8398 101.087 51 101.343 51H104.674ZM137.902 51.3203C140.208 51.3203 142.13 50.3594 143.315 48.7259L143.411 50.5836C143.411 50.8719 143.603 51 143.859 51H146.87C147.126 51 147.287 50.8398 147.287 50.5836V34.8249C147.287 34.5686 147.126 34.4085 146.87 34.4085H143.859C143.603 34.4085 143.411 34.5366 143.411 34.8249L143.315 36.6826C142.13 35.0491 140.208 34.0882 137.902 34.0882C133.161 34.0882 130.151 37.6115 130.151 42.7042C130.151 47.797 133.161 51.3203 137.902 51.3203ZM138.927 47.5408C136.268 47.5408 134.443 45.5549 134.443 42.7042C134.443 39.8536 136.268 37.8677 138.927 37.8677C141.585 37.8677 143.411 39.8536 143.411 42.7042C143.411 45.5549 141.585 47.5408 138.927 47.5408ZM158.101 51.3203C159.99 51.3203 161.816 50.5195 163.001 48.3415C163.193 48.0212 163.129 47.797 162.873 47.6689L160.375 46.5478C160.119 46.4197 159.926 46.5158 159.798 46.74C159.478 47.3166 159.094 47.5408 158.549 47.5408C157.268 47.5408 156.691 46.6439 156.691 44.8502V38.1239H160.631C160.887 38.1239 161.047 37.9638 161.047 37.7075V34.8249C161.047 34.5686 160.887 34.4085 160.631 34.4085H156.691V29.9563C156.691 29.7001 156.531 29.5399 156.275 29.5399H152.944C152.688 29.5399 152.527 29.7001 152.527 29.9563V34.4085H150.093C149.837 34.4085 149.677 34.5686 149.677 34.8249V37.7075C149.677 37.9638 149.837 38.1239 150.093 38.1239H152.527V44.594C152.527 49.0782 154.513 51.3203 158.101 51.3203ZM172.577 51.3203C176.229 51.3203 179.047 49.7508 180.361 46.3236C180.457 46.0674 180.361 45.8752 180.104 45.8111L177.061 45.0745C176.837 45.0104 176.645 45.1065 176.517 45.3307C175.812 46.8041 174.531 47.5408 172.801 47.5408C169.791 47.5408 168.349 45.3307 168.349 42.7042C168.349 40.0778 169.791 37.8677 172.801 37.8677C174.531 37.8677 175.748 38.5724 176.485 39.9817C176.613 40.2059 176.805 40.302 177.029 40.2379L179.784 39.4372C180.04 39.3731 180.168 39.1489 180.072 38.8927C178.855 35.6256 176.261 34.0882 172.545 34.0882C167.356 34.0882 164.057 37.6115 164.057 42.7042C164.057 47.797 167.324 51.3203 172.577 51.3203ZM187.283 51C187.539 51 187.699 50.8398 187.699 50.5836V42.5441C187.699 39.3731 189.621 37.8677 191.639 37.8677C193.817 37.8677 194.81 39.1489 194.81 41.9035V50.5836C194.81 50.8398 194.97 51 195.226 51H198.558C198.814 51 198.974 50.8398 198.974 50.5836V40.2059C198.974 36.3943 196.764 34.0882 192.92 34.0882C190.902 34.0882 188.949 34.8569 187.699 36.4584V27.3939C187.699 27.1376 187.539 26.9775 187.283 26.9775H183.952C183.696 26.9775 183.536 27.1376 183.536 27.3939V50.5836C183.536 50.8398 183.696 51 183.952 51H187.283Z" fill="white"/>
</svg>
